<mxfile host="app.diagrams.net" modified="2023-11-14T22:26:23.541Z" agent="Mozilla/5.0 (Windows NT 10.0; Win64; x64) AppleWebKit/537.36 (KHTML, like Gecko) Chrome/119.0.0.0 Safari/537.36" version="22.1.1" etag="x83cph8p0GSFIVVsMxRO" type="github">
  <diagram name="PÃ¡gina-1" id="iR8aLsLcmWEgccaocsmF">
    <mxGraphModel>
      <root>
        <mxCell id="0" />
        <mxCell id="1" parent="0" />
      </root>
    </mxGraphModel>
  </diagram>
</mxfile>
